# xmcd CD database file
#
# Track frame offsets:
#	150
#	16831
#	41962
#	58856
#	77458
#	92799
#	109699
#	127668
#	145507
#	161277
#	180019
#
# Disc length: 2634 seconds
#
# Revision: 3
# Processed by: cddbd v1.5.2PL0 Copyright (c) Steve Scherf et al.
# Submitted via: CDex 1.99.1
#
DISCID=760a480b
DTITLE=Rebekka Bakken - The art of how to fall
DYEAR=2003
DGENRE=Jazz
TTITLE0=If Only
TTITLE1=Say Goodbye To What Is Gone
TTITLE2=Cover Me With Snow
TTITLE3=I've Tried And I've Waited
TTITLE4=Virgin's Lullaby
TTITLE5=The Art Of How To Fall
TTITLE6=Worriless
TTITLE7=Giant Body
TTITLE8=Do You Know My Love
TTITLE9=Powerless
TTITLE10=Daylight Is Short In Fall
EXTD=YEAR: 2003
EXTT0=
EXTT1=
EXTT2=
EXTT3=
EXTT4=
EXTT5=
EXTT6=
EXTT7=
EXTT8=
EXTT9=
EXTT10=
PLAYORDER=
